{"title":"The.Last.Song.2010.x264.AC3(5.1).Multisub.mkv-Zen_Bud","uid":5793081,"size":1484700351,"categoryP":"video","categoryS":"movies","magnet":"?xt=urn:btih:a3cd10b9841435ec96fb825ef11964143cb0397d&amp;dn=The.Last.Song.2010.x264.AC3%285.1%29.Multisub.mkv-Zen_Bud&amp;tr=udp%3A%2F%2Ftracker.openbittorrent.com%3A80&amp;tr=udp%3A%2F%2Fopen.demonii.com%3A1337&amp;tr=udp%3A%2F%2Ftracker.coppersurfer.tk%3A6969&amp;tr=udp%3A%2F%2Fexodus.desync.com%3A6969","seeders":0,"leechers":0,"uploader":"Zen_Bud","files":-1,"time":1282926834,"description":"********The.Last.Song.2010.x264.AC3(5.1).Multisub.mkv-Zen_Bud********\nFormat                           : Matroska\nFile size                        : 1.38 GiB\nDuration                         : 1h 43mn\nOverall bit rate                 : 1 918 Kbps\nWriting application              : HandBrake 0.9.4\n\nVideo\n\nFormat                           : AVC\nDuration                         : 1h 43mn\nBit rate                         : 1 505 Kbps\nWidth                            : 720 pixels\nHeight                           : 436 pixels\nDisplay aspect ratio             : 2.35:1\nStream size                      : 1.08 GiB (78%)\nWriting library                  : x264 core 79\n\nAudio\n\nFormat                           : AC-3\nDuration                         : 1h 43mn\nBit rate                         : 384 Kbps\nChannel(s)                       : 6 channels\nChannel positions                : Front: L C R, Side: L R, LFE\nSampling rate                    : 48.0 KHz\nBit depth                        : 16 bits\nStream size                      : 283 MiB (20%)\nLanguage                         : English\n\nText #1\nLanguage                         : English\n\nText #2\nLanguage                         : Swedish\n\nText #3\nLanguage                         : Norwegian\n\nText #4\nLanguage                         : Danish\n\nText #5\nLanguage                         : Finnish\n\nText #6\nLanguage                         : Icelandic\n\n","torrent":{"xt":"urn:btih:a3cd10b9841435ec96fb825ef11964143cb0397d","amp;dn":"The.Last.Song.2010.x264.AC3%285.1%29.Multisub.mkv-Zen_Bud","amp;tr":["udp%3A%2F%2Ftracker.openbittorrent.com%3A80","udp%3A%2F%2Fopen.demonii.com%3A1337","udp%3A%2F%2Ftracker.coppersurfer.tk%3A6969","udp%3A%2F%2Fexodus.desync.com%3A6969"],"infoHash":"a3cd10b9841435ec96fb825ef11964143cb0397d","infoHashBuffer":{"type":"Buffer","data":[163,205,16,185,132,20,53,236,150,251,130,94,241,25,100,20,60,176,57,125]},"announce":[],"urlList":[]}}